<?xml version="1.0" standalone="no"?>
<!DOCTYPE svg PUBLIC "-//W3C//DTD SVG 20010904//EN"
 "http://www.w3.org/TR/2001/REC-SVG-20010904/DTD/svg10.dtd">
<svg xmlns="http://www.w3.org/2000/svg"
     width="1497.000000pt" height="1497.000000pt" viewBox="0 0 1497.000000 1497.000000"
     preserveAspectRatio="xMidYMid meet">
<metadata>
Created by potrace 1.16, written by Peter Selinger 2001-2019
</metadata>
<g transform="translate(0.000000,1497.000000) scale(0.100000,-0.100000)"
stroke="none">
<path d="M6646 12040 c-347 -44 -603 -152 -799 -339 -95 -91 -148 -162 -278
-372 -183 -296 -224 -337 -615 -609 -252 -176 -373 -272 -488 -387 -162 -162
-282 -340 -355 -528 -52 -133 -71 -233 -71 -369 1 -245 80 -454 290 -761 275
-404 323 -477 374 -580 108 -219 131 -336 146 -750 6 -168 16 -320 24 -361 20
-100 62 -219 102 -293 145 -265 463 -491 814 -579 31 -8 35 -12 33 -38 -1 -16
-68 -719 -149 -1561 -81 -843 -145 -1535 -142 -1538 3 -3 437 199 965 450
l959 456 1013 -497 c557 -273 1014 -495 1016 -493 1 2 -102 693 -231 1534
-128 842 -234 1540 -234 1551 0 18 8 23 47 29 162 24 564 243 726 395 212 198
317 449 417 992 68 373 128 499 369 781 160 187 222 287 279 448 47 132 66
268 59 418 -7 158 -31 252 -102 396 -67 136 -144 239 -320 425 -180 190 -250
271 -275 320 -28 55 -46 137 -70 328 -37 295 -72 424 -151 571 -145 270 -423
448 -809 518 -136 24 -401 22 -648 -5 -383 -43 -409 -37 -917 215 -263 131
-407 187 -560 218 -94 19 -321 27 -419 15z m393 -675 c46 -16 181 -78 300
-138 593 -301 758 -336 1296 -277 239 26 419 23 527 -8 179 -54 261 -119 298
-239 11 -36 31 -149 45 -252 68 -506 117 -610 455 -966 237 -250 292 -327 310
-438 22 -136 -28 -271 -156 -422 -229 -271 -306 -384 -390 -575 -61 -138 -105
-297 -149 -531 -67 -360 -116 -515 -193 -617 -32 -43 -157 -125 -307 -202
-213 -110 -276 -106 -920 49 -437 105 -668 134 -965 120 -174 -9 -316 -28
-625 -84 -137 -25 -297 -50 -355 -56 -194 -20 -355 18 -512 121 -144 95 -183
165 -198 364 -5 66 -10 184 -10 261 0 257 -40 499 -116 702 -80 214 -192 405
-504 853 -149 213 -204 352 -182 458 14 69 62 173 75 165 6 -3 7 -1 3 5 -9 16
50 104 125 185 79 86 202 185 429 342 459 318 587 449 824 842 43 73 98 153
121 180 109 123 327 196 565 189 104 -3 139 -8 209 -31z m99 -6066 c2 -726 -1
-919 -10 -927 -20 -16 -900 -432 -915 -432 -8 0 -11 9 -8 28 3 15 50 499 106
1077 55 577 102 1051 103 1052 10 11 675 123 706 119 13 -1 15 -112 18 -917z
m962 800 c162 -39 302 -74 310 -78 10 -6 55 -272 175 -1062 89 -580 160 -1055
159 -1057 -1 -2 -231 109 -510 246 l-509 249 -3 893 -2 893 42 -7 c24 -4 176
-39 338 -77z"/>
<path d="M7292 10420 c-334 -42 -630 -187 -867 -425 -367 -366 -513 -882 -390
-1376 66 -266 192 -486 390 -684 217 -218 470 -351 780 -412 137 -27 406 -24
545 6 376 80 676 271 902 574 208 281 313 650 279 987 -36 356 -176 655 -426
905 -212 212 -460 345 -759 406 -116 24 -341 33 -454 19z m293 -451 c103 -12
273 -65 354 -111 179 -100 328 -253 415 -424 94 -184 130 -388 106 -589 -51
-426 -351 -764 -770 -868 -127 -31 -340 -29 -470 6 -178 46 -321 127 -453 256
-134 130 -225 286 -275 471 -22 83 -25 115 -25 255 0 140 3 172 25 255 50 185
141 341 275 471 157 152 331 240 548 274 103 17 159 17 270 4z"/>
<path d="M11779 6448 c-267 -326 -713 -651 -1174 -854 -285 -126 -636 -229
-951 -279 -93 -15 -178 -29 -189 -31 l-21 -3 25 -218 c13 -120 25 -219 26
-221 4 -5 238 31 374 59 420 85 778 208 1135 392 389 200 737 458 1005 743
111 118 216 253 205 264 -7 6 -315 211 -350 232 -6 4 -43 -33 -85 -84z"/>
<path d="M4532 6370 c-731 -111 -1375 -378 -1882 -780 -105 -83 -357 -327
-377 -365 -10 -18 5 -32 159 -145 94 -69 174 -126 177 -128 4 -1 63 53 132
121 430 426 1077 731 1786 843 92 14 175 29 183 33 14 5 13 30 -9 224 -15 129
-29 217 -36 216 -5 0 -66 -9 -133 -19z"/>
<path d="M11936 5031 c-95 -123 -329 -351 -461 -452 -453 -345 -992 -570
-1600 -668 -71 -12 -145 -24 -163 -27 -32 -5 -33 -7 -28 -42 3 -20 15 -118 27
-217 11 -99 22 -181 23 -183 5 -5 231 29 356 54 588 118 1114 339 1547 649
171 123 295 229 448 387 116 118 306 347 305 368 0 3 -67 44 -148 92 -81 49
-165 99 -188 113 l-41 24 -77 -98z"/>
<path d="M5005 5013 c-983 -120 -1895 -524 -2479 -1097 l-99 -98 39 -31 c21
-18 99 -82 173 -143 l134 -111 64 64 c279 274 692 531 1128 702 358 140 673
217 1133 277 42 5 43 6 38 37 -3 18 -13 106 -21 197 -9 91 -18 175 -21 188 -5
23 -14 24 -89 15z"/>
<path d="M12124 3668 c-75 -96 -286 -304 -409 -402 -528 -423 -1168 -683
-1923 -783 -173 -23 -539 -22 -717 1 -441 57 -849 183 -1564 486 -107 45 -197
78 -202 73 -9 -9 -169 -381 -169 -392 0 -21 707 -304 1000 -401 524 -173 923
-239 1388 -227 694 17 1421 230 2036 597 366 217 731 533 942 814 l45 59 -178
118 c-98 65 -183 119 -189 119 -6 0 -33 -28 -60 -62z"/>
<path d="M4955 3583 c-840 -118 -1527 -407 -2061 -864 -108 -93 -306 -297
-302 -311 2 -6 81 -67 176 -137 l173 -126 127 125 c311 307 703 538 1180 697
242 80 531 146 740 169 52 5 62 10 62 26 0 21 -37 344 -46 396 -3 17 -8 31
-12 31 -4 -1 -20 -4 -37 -6z"/>
</g>
</svg>
